<?xml version="1.0" encoding="utf-8"?>
<!-- Generator: Adobe Illustrator 25.0.0, SVG Export Plug-In . SVG Version: 6.00 Build 0)  -->
<svg version="1.1" id="Layer_1" xmlns="http://www.w3.org/2000/svg" xmlns:xlink="http://www.w3.org/1999/xlink" x="0px" y="0px"
	 viewBox="0 0 273.9 89.2" style="enable-background:new 0 0 273.9 89.2;" xml:space="preserve">
<style type="text/css">
	.st0{fill:#F3B929;}
	.st1{fill:#1E659F;}
	.st2{fill:#2A88BD;}
	.st3{fill:#131718;}
	.st4{fill:#821642;}
	.st5{fill:#FFC111;}
	.st6{fill:none;stroke:#000000;stroke-width:9.829744e-02;stroke-miterlimit:22.926;}
</style>
<g>
	<g id="XMLID_73_">
		<g id="XMLID_26_">
			<path id="Fill-44" class="st0" d="M62.1,4.8c-6.3,0-11.5,5.5-11.5,12.1s5.2,12,11.5,12s11.5-5.5,11.5-12
				C73.6,10.2,68.4,4.8,62.1,4.8"/>
			<path id="Fill-45" class="st1" d="M48.8,28.2H21.4c-1.9-0.1-3.4-1.8-3.4-3.8c5,0,19,0,30.8,0V28.2L48.8,28.2z M48.8,64.8H21.4
				l0,0C19.5,64.7,18,63.1,18,61c5,0,19,0,30.8,0V64.8L48.8,64.8z M48.8,35.5c-9.1,0-18.2,0-27.3,0c-0.1,0-0.1,0-0.2,0l0,0
				c-1.9-0.1-3.4-1.8-3.4-3.8c5,0,19,0,30.8,0L48.8,35.5L48.8,35.5z M48.8,42.9c-9.1,0-18.2,0-27.3,0c-0.1,0-0.1,0-0.2,0l0,0
				c-1.9-0.1-3.4-1.8-3.4-3.8c5,0,19,0,30.8,0L48.8,42.9L48.8,42.9z M48.8,50.2c-9.1,0-18.2,0-27.3,0c-0.1,0-0.1,0-0.2,0l0,0
				c-1.9-0.1-3.4-1.8-3.4-3.8c5,0,19,0,30.8,0L48.8,50.2L48.8,50.2z M48.8,57.5c-9.1,0-18.2,0-27.3,0c-0.1,0-0.1,0-0.2,0l0,0
				c-1.9-0.1-3.4-1.8-3.4-3.8c5,0,19,0,30.8,0L48.8,57.5L48.8,57.5z"/>
			<path id="Fill-46" class="st2" d="M48.8,24.5l10.8-9.3l-10.8,13V24.5z M48.8,61.1l10.8-9.3l-10.8,13V61.1z M48.8,31.8
				c3.6-3.1,7.2-6.2,10.8-9.3c-3.6,4.3-7.2,8.7-10.8,13.1V31.8z M48.8,39.1c3.6-3.1,7.2-6.2,10.8-9.3c-3.6,4.3-7.2,8.7-10.8,13.1
				V39.1z M48.8,46.4c3.6-3.1,7.2-6.2,10.8-9.3c-3.6,4.3-7.2,8.7-10.8,13.1V46.4z M59.7,44.4c-3.6,4.3-7.2,8.7-10.8,13.1v-3.8
				C52.4,50.7,56.1,47.6,59.7,44.4L59.7,44.4z"/>
			<path id="Fill-47" class="st3" d="M11.6,83.2c-0.1,0.2-0.3,0.4-0.5,0.5s-0.4,0.2-0.6,0.2s-0.4,0-0.6,0H8.5V81H10
				c0.2,0,0.4,0,0.6,0c0.2,0.1,0.4,0.1,0.6,0.2c0.2,0.1,0.4,0.3,0.5,0.5s0.2,0.5,0.2,0.8C11.8,82.8,11.7,83,11.6,83.2z M8.5,76.9
				h1.4c0.2,0,0.3,0,0.5,0.1c0.2,0,0.4,0.1,0.5,0.2s0.3,0.2,0.3,0.4c0.1,0.2,0.1,0.4,0.1,0.6s0,0.5-0.1,0.6
				c-0.1,0.2-0.2,0.3-0.3,0.4s-0.3,0.2-0.5,0.2c-0.2,0.1-0.4,0.1-0.6,0.1H8.5V76.9z M13.7,84c0.2-0.4,0.3-0.8,0.3-1.3
				c0-0.4-0.1-0.8-0.2-1c-0.1-0.3-0.3-0.6-0.6-0.8c-0.2-0.2-0.4-0.4-0.7-0.5c-0.2-0.1-0.5-0.2-0.7-0.2l-0.3-0.1l0.3-0.1
				c0.1,0,0.3-0.1,0.4-0.2c0.2-0.1,0.4-0.3,0.5-0.5c0.2-0.2,0.3-0.4,0.4-0.7c0.1-0.3,0.2-0.6,0.2-0.8c0-0.4-0.1-0.7-0.2-1
				c-0.1-0.3-0.3-0.7-0.6-0.8c-0.1-0.2-0.5-0.4-0.8-0.6s-0.9-0.2-1.5-0.2H6.4v10.4h3.7c0.6,0,1.1-0.1,1.6-0.2s0.8-0.3,1.2-0.6
				C13.3,84.7,13.5,84.3,13.7,84L13.7,84z"/>
			<path id="Fill-48" class="st3" d="M18.3,76.9h1.5c0.5,0,0.8,0.2,1,0.4c0.3,0.3,0.4,0.7,0.4,1.1c0,0.5-0.1,0.8-0.4,1
				c-0.3,0.3-0.7,0.4-1,0.4h-1.5V76.9z M21.7,85.6H24l-2.2-4.1l0.1-0.1c0.5-0.3,0.8-0.7,1.2-1.2c0.3-0.5,0.4-1.1,0.4-1.8
				c0-0.5-0.1-0.8-0.2-1.2c-0.1-0.4-0.4-0.8-0.7-1c-0.3-0.3-0.7-0.6-1-0.7c-0.5-0.2-0.9-0.3-1.5-0.3h-3.7v10.4h2v-3.9h1.4L21.7,85.6
				L21.7,85.6z"/>
			<polygon id="Fill-49" class="st3" points="26.1,85.6 28.2,85.6 28.2,75.2 26.1,75.2 			"/>
			<path id="Fill-50" class="st3" d="M39.8,79.9h-3.7v1.7h1.8v1.5l0,0c-0.3,0.2-0.6,0.4-0.9,0.5s-0.8,0.2-1.1,0.2
				c-0.5,0-0.8-0.1-1.2-0.3c-0.4-0.2-0.8-0.4-1-0.7s-0.5-0.7-0.7-1.1c-0.2-0.5-0.3-0.9-0.3-1.4s0.1-0.9,0.2-1.3
				c0.2-0.5,0.4-0.8,0.6-1.1c0.3-0.3,0.6-0.6,0.9-0.8c0.4-0.2,0.8-0.3,1.3-0.3c0.6,0,1.1,0.2,1.5,0.4c0.4,0.3,0.7,0.6,1,0.9l1.4-1.4
				c-0.5-0.6-0.9-1-1.6-1.4s-1.5-0.6-2.4-0.6c-0.8,0-1.5,0.1-2.1,0.4c-0.7,0.3-1.1,0.7-1.6,1.1c-0.5,0.5-0.8,1-1,1.7
				c-0.3,0.7-0.4,1.4-0.4,2.2c0,0.8,0.1,1.5,0.4,2.3c0.2,0.7,0.6,1.2,1,1.7c0.5,0.5,0.9,0.8,1.6,1.1c0.7,0.3,1.4,0.4,2.2,0.4
				s1.7-0.1,2.4-0.4s1.2-0.6,1.8-1L39.8,79.9"/>
			<path id="Fill-51" class="st3" d="M46.3,77.3l1.3,4.1H45L46.3,77.3z M48.2,83.1l0.8,2.4h2.2l-3.5-10.4h-2.5l-3.6,10.4h2.3
				l0.8-2.4H48.2L48.2,83.1z"/>
			<path id="Fill-52" class="st3" d="M59.1,82.8c-0.6,0.6-1.3,0.8-2.4,0.8h-1.5V77h1.5c0.6,0,1,0.1,1.4,0.3c0.4,0.2,0.8,0.4,1,0.7
				c0.3,0.3,0.5,0.7,0.6,1s0.2,0.8,0.2,1.4C59.9,81.4,59.7,82.3,59.1,82.8z M61.7,82.7c0.3-0.7,0.4-1.4,0.4-2.3S62,78.7,61.7,78
				c-0.3-0.7-0.7-1.2-1.1-1.6c-0.5-0.4-1-0.8-1.7-0.9c-0.7-0.2-1.3-0.3-2.1-0.3h-3.7v10.4h3.7c0.8,0,1.5-0.1,2.1-0.3
				c0.7-0.2,1.2-0.6,1.7-0.9C61.1,83.9,61.4,83.3,61.7,82.7L61.7,82.7z"/>
			<polyline id="Fill-53" class="st3" points="66.7,83.7 66.7,81.1 69.7,81.1 70.2,79.3 66.7,79.3 66.7,77.1 70.8,77.1 71.2,75.2 
				64.6,75.2 64.6,85.6 70.8,85.6 71.2,83.7 66.7,83.7 			"/>
		</g>
		<rect id="XMLID_72_" x="86.1" y="5.9" class="st3" width="0.8" height="78.8"/>
	</g>
</g>
<g>
	<path class="st4" d="M124.3,59h0.9l-0.5,6.3l0,0.1c-2.4,3.9-6.3,5.8-10.8,5.7c-8.3,0-13.7-5.8-13.7-14c0-8.4,5.6-14,14-14
		c3.2,0,6.4,0.8,9.1,2.6l0.1,0.1l0.8,5.8h-0.8l-0.1-0.2c-1.1-4.3-4.8-6.5-9.1-6.5c-2.3,0-4.5,0.6-6.3,2c-3.1,2.4-4.3,6.4-4.3,10.2
		c0,4,1.3,8.2,4.7,10.6c1.7,1.2,3.6,1.7,5.7,1.8c6.4,0,9.8-3.8,10.5-10.2L124.3,59z M138.1,69.6l0,0.9h-8.8l0-0.9h0.7
		c1.2,0,2.1-0.9,2.1-2.1V46.6c0-1.2-1-2.1-2.1-2.1h-0.7l0-0.9h8.8l0,0.9h-0.7c-1.2,0-2.1,0.9-2.1,2.1v20.9c0,1.2,1,2.1,2.1,2.1
		H138.1z M162.2,45.2h-6.9v22.3c0,1.2,1,2.1,2.1,2.1h0.7l0,0.9h-8.8l0-0.9h0.7c1.1,0,2.1-0.9,2.1-2V45.2h-6.9c-1.1,0-1.9,0.9-1.9,2
		v0.9l-0.9,0v-5.4l0.4,0.2c0.3,0.1,0.8,0.2,1.2,0.3c0.6,0.1,1.2,0.2,1.8,0.3c0.5,0.1,1,0.1,1.5,0.1h12.7c0.5,0,1,0,1.5-0.1
		c0.6-0.1,1.2-0.1,1.8-0.3c0.4-0.1,0.8-0.2,1.2-0.3l0.4-0.2v5.4l-0.9,0v-0.9C164.1,46.2,163.2,45.3,162.2,45.2 M176.6,48.6
		c-4.1,10.5-3.9,9.9-7.4,19c-0.2,0.5-0.2,1,0.1,1.5c0.2,0.3,0.7,0.5,1.1,0.5h0.6v0.9h-8.1v-0.9h0.6c1.4,0,2.5-1,3.1-2.2l8.5-20.3
		c0.3-0.7,1.4-3.1,1.4-3.8v-0.3h0.8l10.1,24.3c0.6,1.2,1.7,2.2,3.1,2.2h0.6v0.9h-9v-0.9h0.6c0.4,0,0.8-0.2,1.1-0.5
		c0.3-0.4,0.3-1,0.1-1.5C179.9,57.2,181.2,60.7,176.6,48.6 M194.5,43.6l13,0c8.1,0,13.8,5.3,13.8,13.5c0,8.2-5.7,13.5-13.8,13.5h-13
		l0-0.9h0.7c1.2,0,2.1-0.9,2.1-2.1V46.4c0-1.1-1.1-1.9-2.1-1.9h-0.7L194.5,43.6z M228.1,46.4c-0.1-1.1-1-1.9-2.1-1.9h-0.8v-0.9h11.3
		c0.5,0,1,0,1.4-0.1c0.6-0.1,1.2-0.1,1.8-0.3c0.4-0.1,0.8-0.2,1.2-0.3l0.4-0.2v5.4h-0.9v-0.9c0-1-0.8-1.9-1.8-2h-7.4v11.1h6.1
		c0.9,0,1.6-0.7,1.6-1.6V54h0.9v6.5h-0.9v-0.8c0-0.8-0.7-1.5-1.5-1.6h-6.1v10.7h5.1c3.6,0,5.2-1.6,6.4-4.8l0.1-0.2h0.9l-2.4,6.6
		h-16.1l0-0.9h0.7c1.2,0,2.1-0.9,2.1-2.1V46.4z M255,68.8h5.1c3.6,0,5.2-1.6,6.4-4.8l0.1-0.2h0.9l-2.4,6.6h-16.1l0-0.9h0.7
		c1.2,0,2.1-0.9,2.1-2.1V46.6c0-1.2-1-2.1-2.1-2.1h-0.7l0-0.9h8.8l0,0.9h-0.7c-1.2,0-2.1,0.9-2.1,2.1V68.8z M200.4,45.3v23.6h7.1
		c2.3,0,4.5-0.6,6.3-2.1c3-2.3,4.1-6.1,4.1-9.7c0-3.7-1.2-7.5-4.2-9.8c-1.8-1.4-4-2-6.2-2H200.4z"/>
	<path class="st5" d="M227.5,3.7c-4.1,0-7.4,3.3-7.4,7.4c0,4.1,3.3,7.4,7.4,7.4c4.1,0,7.4-3.3,7.4-7.4
		C234.9,7.1,231.6,3.7,227.5,3.7"/>
	<path d="M140.2,26.3c-0.2,0.3-0.4,0.4-0.6,0.6c-0.3,0.1-0.5,0.2-0.8,0.3c-0.3,0-0.6,0.1-0.8,0.1h-2.2v-3.9h2.2c0.2,0,0.5,0,0.8,0.1
		c0.3,0.1,0.6,0.1,0.8,0.3c0.3,0.1,0.5,0.3,0.6,0.6c0.2,0.3,0.2,0.6,0.2,1C140.4,25.7,140.3,26,140.2,26.3 M218.8,26.9v-3.4h4.4
		l0.7-2.5h-5.1V18h5.9l0.7-2.6h-9.5v14.1h8.8l0.7-2.6H218.8z M208,25.7c-0.8,0.8-2,1.2-3.4,1.2h-2.1V18h2.1c0.8,0,1.5,0.1,2.1,0.3
		c0.6,0.2,1.1,0.5,1.4,0.9c0.4,0.4,0.7,0.9,0.9,1.4c0.2,0.6,0.3,1.2,0.3,1.8C209.3,23.9,208.9,24.9,208,25.7 M211.8,25.6
		c0.4-0.9,0.6-1.9,0.6-3.1c0-1.2-0.2-2.3-0.6-3.2c-0.4-0.9-0.9-1.6-1.6-2.2c-0.7-0.6-1.5-1-2.4-1.3c-0.9-0.3-1.9-0.4-3-0.4h-5.3
		v14.1h5.3c1.1,0,2.1-0.1,3-0.4c0.9-0.3,1.7-0.7,2.4-1.3C210.9,27.2,211.4,26.4,211.8,25.6 M189.8,18.3l1.9,5.7h-3.8L189.8,18.3z
		 M192.4,26.2l1.1,3.3h3.1l-5-14.1H188l-5.1,14.1h3.2l1.1-3.3H192.4z M180.5,21.9h-5.3v2.3h2.5v2l-0.1,0c-0.4,0.3-0.8,0.5-1.3,0.7
		c-0.5,0.1-1,0.2-1.6,0.2c-0.6,0-1.2-0.1-1.8-0.3c-0.5-0.2-1-0.5-1.4-0.9c-0.4-0.4-0.7-0.9-0.9-1.5c-0.2-0.6-0.3-1.2-0.3-1.9
		c0-0.6,0.1-1.3,0.3-1.8c0.2-0.6,0.5-1.1,0.8-1.5c0.4-0.4,0.8-0.8,1.4-1c0.5-0.3,1.1-0.4,1.8-0.4c0.8,0,1.5,0.2,2.1,0.5
		c0.5,0.3,1,0.7,1.5,1.2l2-1.9c-0.6-0.8-1.4-1.4-2.3-1.9c-1-0.5-2.1-0.7-3.4-0.7c-1.1,0-2.1,0.2-3,0.6c-0.9,0.4-1.7,0.9-2.3,1.6
		c-0.6,0.7-1.2,1.5-1.5,2.4c-0.4,0.9-0.5,1.9-0.5,2.9c0,1.1,0.2,2.1,0.5,3c0.3,0.9,0.8,1.7,1.4,2.3c0.6,0.6,1.4,1.1,2.3,1.5
		c0.9,0.4,2,0.5,3.1,0.5c1.3,0,2.4-0.2,3.4-0.5c1-0.3,1.8-0.8,2.5-1.4V21.9z M160.8,29.5h3V15.4h-3V29.5z M149.8,17.8h2.1
		c0.6,0,1.2,0.2,1.5,0.6c0.4,0.4,0.6,0.9,0.6,1.5c0,0.6-0.2,1.1-0.6,1.5c-0.4,0.4-0.9,0.6-1.5,0.6h-2.1V17.8z M154.5,29.5h3.2
		l-3.1-5.7l0.1-0.1c0.7-0.4,1.3-0.9,1.7-1.6c0.4-0.7,0.6-1.5,0.6-2.4c0-0.6-0.1-1.2-0.3-1.7c-0.2-0.5-0.5-1-0.9-1.4
		c-0.4-0.4-0.9-0.7-1.5-0.9c-0.6-0.2-1.3-0.3-2.1-0.3h-5.2v14.1h2.9v-5.3h2L154.5,29.5z M135.7,17.7h2c0.2,0,0.5,0,0.7,0.1
		c0.2,0.1,0.5,0.1,0.7,0.3c0.2,0.1,0.4,0.3,0.5,0.5c0.1,0.2,0.2,0.5,0.2,0.8c0,0.3-0.1,0.6-0.2,0.8c-0.1,0.2-0.3,0.4-0.5,0.5
		c-0.2,0.1-0.4,0.2-0.6,0.3c-0.2,0.1-0.5,0.1-0.7,0.1h-2V17.7z M143.1,27.3c0.3-0.5,0.4-1.1,0.4-1.8c0-0.6-0.1-1-0.3-1.4
		c-0.2-0.4-0.4-0.8-0.7-1c-0.3-0.3-0.6-0.5-0.9-0.6c-0.3-0.1-0.6-0.2-0.9-0.3l-0.4-0.1l0.4-0.1c0.2,0,0.4-0.1,0.6-0.3
		c0.2-0.1,0.5-0.3,0.7-0.6c0.2-0.2,0.4-0.5,0.6-0.9c0.2-0.3,0.2-0.7,0.2-1.2c0-0.5-0.1-0.9-0.3-1.4c-0.2-0.4-0.4-0.8-0.8-1.2
		c-0.4-0.3-0.9-0.6-1.5-0.8c-0.6-0.2-1.3-0.3-2.2-0.3h-5.3v14.1h5.3c0.8,0,1.6-0.1,2.3-0.2c0.7-0.1,1.3-0.4,1.7-0.7
		C142.5,28.3,142.9,27.8,143.1,27.3"/>
	<polygon class="st5" points="187.2,61.5 166.5,61.5 167.1,59.8 186.6,59.8 	"/>
	<path d="M152.5,79.8L152.5,79.8l-2.2,4.7l-2.2-4.7H148l-0.6,5c0,0.3-0.3,0.5-0.6,0.5h-0.1v0.1h1.5v-0.1h-0.1
		c-0.2,0-0.3-0.2-0.3-0.3l0.3-3.8l2,4.4h0.1c0.1-0.3,0.3-0.8,0.3-0.8l1.6-3.7l0.4,4c0,0.2-0.1,0.3-0.3,0.3h-0.1v0.1h1.7v-0.1h-0.1
		c-0.3,0-0.5-0.2-0.6-0.5L152.5,79.8z M159.7,79.8c-1.7,0-2.8,1.1-2.8,2.9c0,1.7,1.2,2.9,2.8,2.9c1.7,0,2.8-1.1,2.8-2.9
		C162.5,80.9,161.4,79.8,159.7,79.8 M159.7,85.2c-1.3,0-2.2-1-2.2-2.6s0.9-2.6,2.2-2.6s2.2,1,2.2,2.6S161.1,85.2,159.7,85.2
		 M166.4,79.9c-0.3,0-0.8-0.1-0.9-0.1v1l0.1,0v-0.1c0-0.3,0.2-0.5,0.4-0.5h1.5v4.7c0,0.3-0.2,0.5-0.5,0.5h-0.1l0,0.1h1.7l0-0.1h-0.1
		c-0.3,0-0.5-0.2-0.5-0.5v-4.7h1.5c0.2,0,0.4,0.2,0.4,0.5v0.1l0.1,0v-1c-0.1,0.1-0.6,0.1-0.9,0.1H166.4z M174.9,85.3L174.9,85.3
		c-0.4,0-0.6-0.2-0.6-0.5v-4.4c0-0.3,0.2-0.5,0.5-0.5h0.1l0-0.1h-1.7l0,0.1h0.1c0.3,0,0.5,0.2,0.5,0.5v4.4c0,0.3-0.2,0.5-0.5,0.5
		h-0.1l0,0.1L174.9,85.3L174.9,85.3z M186.3,79.9L186.3,79.9l0.1,0.1c0.3,0,0.5,0.2,0.5,0.5v3.9l-4.3-4.6h-0.1c0,0,0.1,0.4,0.1,1
		v4.1c0,0.3-0.2,0.5-0.5,0.5H182l0,0.1h1.6l0-0.1h-0.1c-0.3,0-0.5-0.2-0.5-0.5v-3.9l4.3,4.6h0.1c0,0-0.1-0.5-0.1-1v-4.1
		c0-0.3,0.2-0.5,0.5-0.5h0.1l0-0.1H186.3z M193.5,79.8L193.5,79.8c-0.1,0.2-0.4,0.8-0.4,0.8l-1.8,4.2c-0.2,0.3-0.5,0.5-0.7,0.5h-0.1
		v0.1h1.6v-0.1h-0.1c-0.2,0-0.4-0.2-0.3-0.5l0.5-1.3h2.1l0.5,1.3c0.1,0.3-0.1,0.5-0.3,0.5h-0.1v0.1h1.8v-0.1h-0.1
		c-0.2,0-0.5-0.1-0.7-0.5L193.5,79.8z M192.5,83.2l1-2.5l0.9,2.5H192.5z M204.7,82.8L204.7,82.8l-1.5-0.1v0.1h0.1
		c0.3,0,0.4,0.1,0.4,0.4v1.4c-0.5,0.4-1.1,0.7-1.8,0.7c-1.3,0-2.2-1.1-2.2-2.6c0-1.6,0.9-2.6,2.2-2.6c1,0,1.8,0.5,2,1.4h0.1
		l-0.2-1.1c-0.5-0.3-1-0.5-1.9-0.5c-1.7,0-2.8,1.1-2.8,2.9c0,1.7,1.2,2.8,2.8,2.9c1.2,0,1.9-0.5,2.3-1v-1.3c0-0.2,0.1-0.4,0.4-0.4
		H204.7z M210.2,79.8L210.2,79.8c-0.1,0.2-0.4,0.8-0.4,0.8l-1.8,4.2c-0.2,0.3-0.4,0.5-0.7,0.5h-0.1v0.1h1.6v-0.1h-0.1
		c-0.2,0-0.4-0.2-0.3-0.5l0.5-1.3h2.1l0.5,1.3c0.1,0.3-0.1,0.5-0.3,0.5h-0.1v0.1h1.8v-0.1H213c-0.2,0-0.5-0.1-0.7-0.5L210.2,79.8z
		 M209.2,83.2l1-2.5l0.9,2.5H209.2z M216.1,79.9L216.1,79.9l0.1,0.1c0.3,0,0.5,0.2,0.5,0.5v4.4c0,0.3-0.2,0.5-0.5,0.5h-0.1l0,0.1
		h1.7l0-0.1h-0.1c-0.3,0-0.5-0.2-0.5-0.5v-4.7c0.1,0,0.6,0,1,0c0.6,0,1,0.5,1,1.2c0,0.2,0,0.4,0,0.5c-0.2,0.7-0.8,0.8-1.2,0.8
		c-0.2,0-0.4,0-0.4,0v0.1c0.3,0,0.5,0.3,0.7,0.5c0.1,0.1,0.9,1.4,1,1.5c0.2,0.3,0.6,0.7,1.4,0.7h0.4v-0.1c-0.5,0-0.8-0.2-1.1-0.6
		c-0.3-0.3-1-1.3-1-1.3c-0.2-0.2-0.4-0.5-0.6-0.6c0.8,0,1.3-0.7,1.3-1.5c0-0.9-0.6-1.5-1.5-1.5H216.1z"/>
	<path class="st6" d="M152.5,79.8L152.5,79.8l-2.2,4.7l-2.2-4.7H148l-0.6,5c0,0.3-0.3,0.5-0.6,0.5h-0.1v0.1h1.5v-0.1h-0.1
		c-0.2,0-0.3-0.2-0.3-0.3l0.3-3.8l2,4.3h0.1c0.1-0.3,0.3-0.8,0.3-0.8l1.6-3.6l0.4,3.9c0,0.2-0.1,0.3-0.3,0.3h-0.1v0.1h1.7v-0.1h-0.1
		c-0.3,0-0.5-0.2-0.6-0.5L152.5,79.8z M159.7,79.8c-1.7,0-2.8,1.1-2.8,2.8c0,1.7,1.2,2.8,2.8,2.8c1.7,0,2.8-1.1,2.8-2.8
		C162.6,80.9,161.4,79.8,159.7,79.8z M159.7,85.2c-1.3,0-2.2-1-2.2-2.6c0-1.6,0.9-2.6,2.2-2.6c1.3,0,2.2,1,2.2,2.6
		C162,84.2,161.1,85.2,159.7,85.2z M166.4,79.9c-0.3,0-0.8-0.1-0.9-0.1v1l0.1,0v-0.1c0-0.2,0.2-0.5,0.4-0.5h1.5v4.7
		c0,0.3-0.2,0.5-0.5,0.5h-0.1l0,0.1h1.7l0-0.1h-0.1c-0.3,0-0.5-0.2-0.5-0.5v-4.7h1.5c0.2,0,0.4,0.2,0.4,0.5v0.1l0.1,0v-1
		c-0.1,0.1-0.6,0.1-0.9,0.1H166.4z M174.9,85.3L174.9,85.3c-0.4,0-0.6-0.2-0.6-0.5v-4.3c0-0.3,0.2-0.5,0.5-0.5h0.1l0-0.1h-1.7l0,0.1
		h0.1c0.3,0,0.5,0.2,0.5,0.5v4.3c0,0.3-0.2,0.5-0.5,0.5h-0.1l0,0.1L174.9,85.3L174.9,85.3z M186.3,79.9L186.3,79.9l0.1,0.1
		c0.3,0,0.5,0.2,0.5,0.5v3.9l-4.3-4.5h-0.1c0,0,0.1,0.4,0.1,1v4c0,0.3-0.2,0.5-0.5,0.5H182l0,0.1h1.6l0-0.1h-0.1
		c-0.3,0-0.5-0.2-0.5-0.5v-3.9l4.3,4.5h0.1c0,0-0.1-0.5-0.1-1v-4c0-0.3,0.2-0.5,0.5-0.5h0.1l0-0.1H186.3z M193.5,79.8L193.5,79.8
		c-0.1,0.2-0.4,0.8-0.4,0.8l-1.8,4.2c-0.2,0.3-0.5,0.5-0.7,0.5h-0.1v0.1h1.6v-0.1h-0.1c-0.2,0-0.4-0.2-0.3-0.5l0.5-1.3h2.1l0.5,1.3
		c0.1,0.3-0.1,0.5-0.3,0.5h-0.1v0.1h1.8v-0.1h-0.1c-0.2,0-0.5-0.1-0.7-0.5L193.5,79.8z M192.5,83.2l1-2.5l0.9,2.5H192.5z
		 M204.7,82.8L204.7,82.8l-1.5-0.1v0.1h0.1c0.3,0,0.4,0.1,0.4,0.4v1.4c-0.5,0.4-1.1,0.7-1.8,0.7c-1.3,0-2.2-1-2.2-2.6
		c0-1.6,0.9-2.6,2.2-2.6c1,0,1.8,0.5,2,1.4h0.1l-0.2-1.1c-0.5-0.3-1-0.5-1.9-0.5c-1.7,0-2.8,1.1-2.8,2.8c0,1.7,1.2,2.8,2.8,2.8
		c1.2,0,1.9-0.5,2.3-1v-1.3c0-0.2,0.1-0.4,0.4-0.4H204.7z M210.2,79.8L210.2,79.8c-0.1,0.2-0.4,0.8-0.4,0.8l-1.8,4.2
		c-0.2,0.3-0.5,0.5-0.7,0.5h-0.1v0.1h1.6v-0.1h-0.1c-0.2,0-0.4-0.2-0.3-0.5l0.5-1.3h2.1l0.5,1.3c0.1,0.3-0.1,0.5-0.3,0.5h-0.1v0.1
		h1.8v-0.1H213c-0.2,0-0.5-0.1-0.7-0.5L210.2,79.8z M209.2,83.2l1-2.5l0.9,2.5H209.2z M216,79.9L216,79.9l0.1,0.1
		c0.3,0,0.5,0.2,0.5,0.5v4.3c0,0.3-0.2,0.5-0.5,0.5H216l0,0.1h1.7l0-0.1h-0.1c-0.3,0-0.5-0.2-0.5-0.5v-4.6c0.1,0,0.6,0,1,0
		c0.6,0,1,0.5,1,1.2c0,0.2,0,0.4,0,0.5c-0.2,0.7-0.8,0.8-1.2,0.8c-0.2,0-0.4,0-0.4,0v0.1c0.3,0,0.5,0.3,0.7,0.5
		c0.1,0.1,0.9,1.4,1,1.5c0.2,0.3,0.6,0.7,1.4,0.7h0.4v-0.1c-0.5,0-0.8-0.2-1.1-0.6c-0.3-0.3-1-1.3-1-1.3c-0.2-0.2-0.4-0.5-0.6-0.5
		c0.8,0,1.3-0.7,1.3-1.5c0-0.9-0.6-1.5-1.5-1.5H216z"/>
</g>
</svg>
